<svg version="1.1" id="Слой_1" xmlns="http://www.w3.org/2000/svg" x="0" y="0" viewBox="0 0 172.2 57.8" xml:space="preserve"><style>.st0{fill:#1b9247}</style><path class="st0" d="M92.1 17.5H0v40.4h172.2V17.5H92.1zm77.1 37.3H93.4V20.5h75.8v34.3z"/><path d="M14.6 46.2c-.1-.1-.2-.2-.2-.4V32.5H10c-.2 0-.3-.1-.4-.2-.1-.1-.2-.3-.2-.4v-1.8c0-.2.1-.3.2-.4.1-.1.2-.2.4-.2h12.3c.2 0 .3.1.4.2.1.1.2.3.2.4v1.8c0 .2-.1.3-.2.4-.1.1-.3.2-.4.2h-4.4v13.2c0 .2-.1.3-.2.4-.1.1-.2.2-.4.2H15c-.1 0-.3 0-.4-.1zm10.9 0c-.1-.1-.2-.2-.2-.4V30.1c0-.2.1-.3.2-.4.1-.1.2-.2.4-.2h10.6c.2 0 .3.1.4.2.1.1.2.3.2.4v1.6c0 .2-.1.3-.2.4-.1.1-.3.2-.4.2h-7.9v4.2h7.3c.2 0 .3.1.4.2.1.1.2.3.2.4v1.5c0 .2-.1.3-.2.4-.1.1-.3.2-.4.2h-7.3v4.3h8.1c.2 0 .3.1.4.2.1.1.2.2.2.4v1.6c0 .2-.1.3-.2.4-.1.1-.3.2-.4.2H25.9c-.2 0-.3 0-.4-.1zm13.4 0c-.1-.1-.2-.2-.2-.4 0-.1 0-.2.1-.3l5.4-7.8-5-7.4c-.1-.1-.1-.2-.1-.3 0-.1.1-.3.2-.4.1-.1.2-.1.3-.1h2.5c.3 0 .5.2.7.5l3.5 5.1 3.5-5.1c.2-.3.4-.5.7-.5H53c.1 0 .2 0 .3.1.1.1.2.2.2.4 0 .1 0 .2-.1.3l-5 7.4 5.4 7.8c0 .1.1.2.1.3 0 .1 0 .3-.1.4-.1.1-.2.1-.4.1h-2.6c-.3 0-.5-.1-.7-.4l-3.8-5.4-3.7 5.4c-.2.3-.5.4-.7.4h-2.5c-.2 0-.4 0-.5-.1zm17.4 0c-.1-.1-.2-.2-.2-.4V30.1c0-.2.1-.3.2-.4.1-.1.2-.2.4-.2h2.2c.2 0 .3.1.4.2.1.1.2.3.2.4v6.2h7v-6.2c0-.2.1-.3.2-.4.1-.1.2-.2.4-.2h2.2c.2 0 .3.1.4.2.1.1.2.3.2.4v15.6c0 .2-.1.3-.2.4-.1.1-.2.2-.4.2h-2.2c-.2 0-.3-.1-.4-.2-.1-.1-.2-.2-.2-.4v-6.4h-7v6.4c0 .2-.1.3-.2.4-.1.1-.3.2-.4.2h-2.2c-.1 0-.3 0-.4-.1zM75 44.9c-1.2-1.1-1.9-2.7-1.9-4.9v-4.1c.1-2.1.7-3.8 2-4.9 1.2-1.1 2.9-1.7 5.1-1.7 2.1 0 3.8.6 5.1 1.7 1.3 1.1 1.9 2.8 2 4.9V40c-.1 2.2-.7 3.8-1.9 4.9-1.2 1.1-2.9 1.7-5.1 1.7-2.3 0-4-.6-5.3-1.7zm7.7-2.1c.6-.6 1-1.6 1-3V36c0-1.3-.4-2.3-1-2.9-.6-.6-1.5-1-2.5-1-1.1 0-1.9.3-2.5 1-.6.6-1 1.6-1 2.9v3.8c0 1.3.4 2.3 1 2.9.6.6 1.5 1 2.6 1s1.8-.2 2.4-.9z" fill="#fff"/><path class="st0" d="M101.5 46.2c-.1-.1-.2-.2-.2-.4V30.1c0-.2.1-.3.2-.4.1-.1.2-.2.4-.2h12.6c.2 0 .3.1.4.2.1.1.2.3.2.4v15.6c0 .2-.1.3-.2.4-.1.1-.2.2-.4.2h-2.2c-.2 0-.3-.1-.4-.2-.1-.1-.2-.2-.2-.4V32.6h-7v13.2c0 .2-.1.3-.2.4-.1.1-.3.2-.4.2h-2.2c-.2-.1-.3-.1-.4-.2zm28 0c-.1-.1-.2-.2-.2-.4V32.6h-5.2v3c0 2.6-.2 4.7-.5 6.3-.4 1.5-1 2.6-1.8 3.4-.9.7-2.1 1.1-3.6 1.1-.2 0-.3 0-.4-.2s-.2-.3-.2-.4V44c0-.2.1-.3.2-.4.1-.1.2-.2.4-.2.9-.1 1.6-.9 2.1-2.2.5-1.3.7-3.3.7-6v-5c0-.2.1-.3.2-.4.1-.1.2-.2.4-.2h10.7c.2 0 .3.1.4.2.1.1.2.3.2.4v15.6c0 .2-.1.3-.2.4-.1.1-.3.2-.4.2h-2.2c-.3-.1-.5-.1-.6-.2zm7.1 0c-.1-.1-.2-.3-.2-.4V30.1c0-.2.1-.3.2-.4.1-.1.2-.2.4-.2h2.2c.2 0 .3.1.4.2.1.1.2.3.2.4v11l7.8-11.2c.1-.3.4-.4.7-.4h2c.2 0 .3.1.4.2.1.1.2.3.2.4v15.6c0 .2-.1.3-.2.4-.1.1-.2.2-.4.2h-2.2c-.2 0-.3-.1-.4-.2-.1-.1-.2-.2-.2-.4V35l-7.8 10.9c-.2.3-.4.4-.7.4h-2c-.1 0-.3 0-.4-.1zm22 0c-.1-.1-.2-.2-.2-.4V32.5H154c-.2 0-.3-.1-.4-.2-.1-.1-.2-.3-.2-.4v-1.8c0-.2.1-.3.2-.4.1-.1.2-.2.4-.2h12.3c.2 0 .3.1.4.2.1.1.2.3.2.4v1.8c0 .2-.1.3-.2.4-.1.1-.3.2-.4.2h-4.4v13.2c0 .2-.1.3-.2.4-.1.1-.2.2-.4.2H159c-.2 0-.3 0-.4-.1zM8 9.8c0 .1 0 .1-.1.2s-.1.1-.2.1H6.5c-.2 0-.3-.1-.4-.2L4 6.6H2.9v3.2c0 .1 0 .1-.1.2s-.1.1-.2.1H1.4c-.1 0-.1 0-.2-.1V2c0-.1 0-.2.1-.2.1-.1.1-.1.2-.1h1.1c.1 0 .2 0 .2.1 0 0 .1.1.1.2v3.1h1l2-3.2c.1-.2.2-.2.4-.2h1.2c.1 0 .1 0 .2.1 0 0 .1.1.1.2 0 0 0 .1-.1.1L5.5 5.7l2.5 4v.1zm16.2-.4c-.6-.6-.9-1.4-1-2.5v-2c0-1.1.4-1.9 1-2.4.6-.6 1.5-.9 2.6-.9s1.9.3 2.6.9c.6.6 1 1.4 1 2.4v2c0 1.1-.4 1.9-1 2.5-.6.6-1.5.8-2.6.8s-2-.3-2.6-.8zm3.9-1.1c.3-.3.5-.8.5-1.5v-2c0-.7-.2-1.1-.5-1.5-.3-.3-.8-.5-1.3-.5s-1 .2-1.3.5c-.3.5-.5.9-.5 1.6v2c0 .7.2 1.1.5 1.5.3.3.8.5 1.3.5s1-.3 1.3-.6zM46.7 10c-.1-.1-.1-.1-.1-.2V2c0-.1 0-.2.1-.2.1-.1.1-.1.2-.1h1c.2 0 .3.1.4.2l2.4 4.3L53 1.9c.1-.2.2-.2.4-.2h1c.1 0 .2 0 .2.1.1.1.1.1.1.2v7.8c0 .1 0 .2-.1.2-.1.1-.1.1-.2.1h-1c-.1 0-.2 0-.2-.1s-.1-.1-.1-.2V4.6l-1.7 3.2c-.3.2-.4.3-.6.3h-.5c-.2 0-.3-.1-.4-.3l-1.7-3.2v5.2c0 .1 0 .1-.1.2s-.1.1-.2.1h-1c-.1 0-.2-.1-.2-.1zm24.5 0c-.1-.1-.1-.1-.1-.2V2c0-.1 0-.2.1-.2.1-.1.1-.1.2-.1h6.4c.1 0 .2 0 .2.1 0 0 .1.1.1.2v7.8c0 .1 0 .1-.1.2s-.1.1-.2.1h-1.1c-.1 0-.2 0-.2-.1-.1-.1-.1-.1-.1-.2V3.2h-3.6v6.6c0 .1 0 .1-.1.2s-.1.1-.2.1h-1.1c-.1 0-.2-.1-.2-.1zm22.7 0s-.1-.1-.1-.2v-.1L96.7 2c.1-.2.2-.3.4-.3h1.3c.2 0 .4.1.4.3l2.9 7.7v.1c0 .1 0 .1-.1.2s-.1.1-.2.1h-1.1c-.2 0-.3-.1-.4-.2l-.6-1.5h-3.6l-.6 1.5c-.1.2-.2.2-.4.2h-1.1c.4 0 .3-.1.3-.1zm2.6-3h2.8l-1.4-3.7L96.5 7zm21.2 3c-.1-.1-.1-.1-.1-.2V2c0-.1 0-.2.1-.2.1-.1.1-.1.2-.1h1.1c.1 0 .2 0 .2.1.1.1.1.1.1.2v3.1h3.6V2c0-.1 0-.2.1-.2.1-.1.1-.1.2-.1h1.1c.1 0 .2 0 .2.1.1.1.1.1.1.2v7.8c0 .1 0 .1-.1.2s-.1.1-.2.1h-1.1c-.1 0-.2 0-.2-.1s-.1-.1-.1-.2V6.6h-3.6v3.2c0 .1 0 .1-.1.2s-.1.1-.2.1h-1.1c-.1 0-.1-.1-.2-.1zm23.5 0c-.1-.1-.1-.1-.1-.2V2c0-.1 0-.2.1-.2.1-.1.1-.1.2-.1h1.1c.1 0 .1 0 .2.1s.1.1.1.2v5.5l4-5.6c.1-.1.2-.2.4-.2h1c.1 0 .2 0 .2.1.1.1.1.1.1.2v7.8c0 .1 0 .1-.1.2s-.1.1-.2.1h-1.1c-.1 0-.2 0-.2-.1s-.1-.1-.1-.2V4.4l-4 5.4c-.1.1-.2.2-.4.2h-1c-.1.1-.1 0-.2 0zm30.1-8.3c.1.1.1.1.1.2v7.8c0 .1 0 .1-.1.2s-.1.1-.2.1H170c-.1 0-.2 0-.2-.1-.1-.1-.1-.1-.1-.2V7h-1.3l-1.6 2.7c0 .1-.1.2-.2.2s-.2.1-.3.1h-1.1c-.1 0-.1 0-.2-.1s-.1-.1-.1-.2v-.1l1.8-2.8c-.5-.2-.9-.5-1.2-.9-.3-.4-.4-.9-.4-1.5 0-.5.1-1 .3-1.4.2-.4.6-.7 1-1 .5-.2 1-.4 1.7-.4h3c.1.1.2.1.2.1zM169.7 3h-1.5c-.4 0-.8.1-1 .4-.2.3-.4.6-.4 1 0 .8.4 1.3 1.3 1.3h1.5V3z"/></svg>